<svg width="309" height="50" viewBox="0 0 309 50" fill="none" xmlns="http://www.w3.org/2000/svg">
<path d="M87.8223 28.4219H93.5176C93.4238 30.1797 92.9434 31.7324 92.0762 33.0801C91.2207 34.416 90.0312 35.4648 88.5078 36.2266C86.9844 36.9766 85.1738 37.3516 83.0762 37.3516C81.4004 37.3516 79.9004 37.0645 78.5762 36.4902C77.252 35.916 76.127 35.0957 75.2012 34.0293C74.2871 32.9512 73.584 31.6562 73.0918 30.1445C72.6113 28.6211 72.3711 26.9043 72.3711 24.9941V23.4297C72.3711 21.5195 72.623 19.8027 73.127 18.2793C73.6309 16.7559 74.3516 15.4551 75.2891 14.377C76.2266 13.2988 77.3516 12.4727 78.6641 11.8984C79.9766 11.3242 81.4414 11.0371 83.0586 11.0371C85.2383 11.0371 87.0781 11.4297 88.5781 12.2148C90.0781 13 91.2383 14.0781 92.0586 15.4492C92.8906 16.8203 93.3887 18.3848 93.5527 20.1426H87.8398C87.793 19.1465 87.6055 18.3086 87.2773 17.6289C86.9492 16.9375 86.4453 16.416 85.7656 16.0645C85.0859 15.7129 84.1836 15.5371 83.0586 15.5371C82.2383 15.5371 81.5176 15.6895 80.8965 15.9941C80.2871 16.2988 79.7773 16.7734 79.3672 17.418C78.9688 18.0625 78.6699 18.8828 78.4707 19.8789C78.2715 20.8633 78.1719 22.0352 78.1719 23.3945V24.9941C78.1719 26.3418 78.2598 27.5078 78.4355 28.4922C78.6113 29.4766 78.8926 30.291 79.2793 30.9355C79.6777 31.5801 80.1875 32.0605 80.8086 32.377C81.4297 32.6934 82.1855 32.8516 83.0762 32.8516C84.0957 32.8516 84.9453 32.6934 85.625 32.377C86.3047 32.0488 86.8262 31.5566 87.1895 30.9004C87.5527 30.2441 87.7637 29.418 87.8223 28.4219ZM95.627 27.6836V27.3145C95.627 25.9199 95.8262 24.6367 96.2246 23.4648C96.623 22.2812 97.209 21.2559 97.9824 20.3887C98.7559 19.5215 99.7051 18.8477 100.83 18.3672C101.955 17.875 103.244 17.6289 104.697 17.6289C106.174 17.6289 107.475 17.875 108.6 18.3672C109.736 18.8477 110.691 19.5215 111.465 20.3887C112.238 21.2559 112.824 22.2812 113.223 23.4648C113.621 24.6367 113.82 25.9199 113.82 27.3145V27.6836C113.82 29.0664 113.621 30.3496 113.223 31.5332C112.824 32.7051 112.238 33.7305 111.465 34.6094C110.691 35.4766 109.742 36.1504 108.617 36.6309C107.492 37.1113 106.197 37.3516 104.732 37.3516C103.279 37.3516 101.984 37.1113 100.848 36.6309C99.7109 36.1504 98.7559 35.4766 97.9824 34.6094C97.209 33.7305 96.623 32.7051 96.2246 31.5332C95.8262 30.3496 95.627 29.0664 95.627 27.6836ZM101.129 27.3145V27.6836C101.129 28.4336 101.188 29.1367 101.305 29.793C101.434 30.4492 101.639 31.0234 101.92 31.5156C102.201 32.0078 102.57 32.3945 103.027 32.6758C103.496 32.9453 104.064 33.0801 104.732 33.0801C105.4 33.0801 105.963 32.9453 106.42 32.6758C106.877 32.3945 107.246 32.0078 107.527 31.5156C107.809 31.0234 108.008 30.4492 108.125 29.793C108.254 29.1367 108.318 28.4336 108.318 27.6836V27.3145C108.318 26.5762 108.254 25.8848 108.125 25.2402C108.008 24.584 107.809 24.0039 107.527 23.5C107.246 22.9961 106.871 22.6035 106.402 22.3223C105.945 22.041 105.377 21.9004 104.697 21.9004C104.041 21.9004 103.484 22.041 103.027 22.3223C102.57 22.6035 102.201 22.9961 101.92 23.5C101.639 24.0039 101.434 24.584 101.305 25.2402C101.188 25.8848 101.129 26.5762 101.129 27.3145ZM122.082 22.041V37H116.58V17.9805H121.748L122.082 22.041ZM121.361 26.8223L119.99 26.8574C119.99 25.4277 120.166 24.1445 120.518 23.0078C120.869 21.8711 121.367 20.9043 122.012 20.1074C122.668 19.2988 123.447 18.6836 124.35 18.2617C125.264 17.8398 126.271 17.6289 127.373 17.6289C128.264 17.6289 129.078 17.7578 129.816 18.0156C130.555 18.2734 131.188 18.6895 131.715 19.2637C132.254 19.8262 132.664 20.5762 132.945 21.5137C133.227 22.4395 133.367 23.582 133.367 24.9414V37H127.848V24.9238C127.848 24.127 127.736 23.5117 127.514 23.0781C127.291 22.6445 126.963 22.3398 126.529 22.1641C126.107 21.9883 125.592 21.9004 124.982 21.9004C124.338 21.9004 123.787 22.0293 123.33 22.2871C122.873 22.5332 122.498 22.8789 122.205 23.3242C121.912 23.7695 121.695 24.291 121.555 24.8887C121.426 25.4863 121.361 26.1309 121.361 26.8223ZM142.332 22.041V37H136.83V17.9805H141.998L142.332 22.041ZM141.611 26.8223L140.24 26.8574C140.24 25.4277 140.416 24.1445 140.768 23.0078C141.119 21.8711 141.617 20.9043 142.262 20.1074C142.918 19.2988 143.697 18.6836 144.6 18.2617C145.514 17.8398 146.521 17.6289 147.623 17.6289C148.514 17.6289 149.328 17.7578 150.066 18.0156C150.805 18.2734 151.438 18.6895 151.965 19.2637C152.504 19.8262 152.914 20.5762 153.195 21.5137C153.477 22.4395 153.617 23.582 153.617 24.9414V37H148.098V24.9238C148.098 24.127 147.986 23.5117 147.764 23.0781C147.541 22.6445 147.213 22.3398 146.779 22.1641C146.357 21.9883 145.842 21.9004 145.232 21.9004C144.588 21.9004 144.037 22.0293 143.58 22.2871C143.123 22.5332 142.748 22.8789 142.455 23.3242C142.162 23.7695 141.945 24.291 141.805 24.8887C141.676 25.4863 141.611 26.1309 141.611 26.8223ZM166.168 37.3516C164.656 37.3516 163.303 37.1113 162.107 36.6309C160.912 36.1504 159.898 35.4883 159.066 34.6445C158.246 33.7891 157.619 32.8047 157.186 31.6914C156.752 30.5781 156.535 29.3887 156.535 28.123V27.4551C156.535 26.0371 156.734 24.7305 157.133 23.5352C157.531 22.3398 158.111 21.3027 158.873 20.4238C159.646 19.5332 160.596 18.8477 161.721 18.3672C162.846 17.875 164.129 17.6289 165.57 17.6289C166.918 17.6289 168.119 17.8516 169.174 18.2969C170.229 18.7305 171.119 19.3574 171.846 20.1777C172.572 20.9863 173.123 21.9648 173.498 23.1133C173.885 24.25 174.078 25.5273 174.078 26.9453V29.1953H158.75V25.6621H168.699V25.2402C168.699 24.5723 168.576 23.9863 168.33 23.4824C168.096 22.9785 167.744 22.5918 167.275 22.3223C166.818 22.041 166.238 21.9004 165.535 21.9004C164.867 21.9004 164.311 22.041 163.865 22.3223C163.42 22.6035 163.062 23.002 162.793 23.5176C162.535 24.0215 162.348 24.6133 162.23 25.293C162.113 25.9609 162.055 26.6816 162.055 27.4551V28.123C162.055 28.8613 162.154 29.5352 162.354 30.1445C162.553 30.7539 162.846 31.2754 163.232 31.709C163.619 32.1426 164.088 32.4824 164.639 32.7285C165.189 32.9746 165.816 33.0977 166.52 33.0977C167.387 33.0977 168.213 32.9336 168.998 32.6055C169.783 32.2656 170.463 31.7383 171.037 31.0234L173.604 33.959C173.217 34.5215 172.672 35.0664 171.969 35.5938C171.277 36.1094 170.445 36.5312 169.473 36.8594C168.5 37.1875 167.398 37.3516 166.168 37.3516ZM184.695 33.0801C185.281 33.0801 185.791 32.9688 186.225 32.7461C186.658 32.5234 186.992 32.2129 187.227 31.8145C187.473 31.4043 187.596 30.9121 187.596 30.3379H192.764C192.764 31.7207 192.406 32.9395 191.691 33.9941C190.988 35.0488 190.039 35.875 188.844 36.4727C187.648 37.0586 186.301 37.3516 184.801 37.3516C183.324 37.3516 182.035 37.1113 180.934 36.6309C179.832 36.1387 178.912 35.4531 178.174 34.5742C177.436 33.6953 176.879 32.6758 176.504 31.5156C176.141 30.3438 175.959 29.0781 175.959 27.7188V27.2617C175.959 25.9141 176.141 24.6543 176.504 23.4824C176.879 22.3105 177.436 21.2852 178.174 20.4062C178.912 19.5273 179.826 18.8477 180.916 18.3672C182.018 17.875 183.307 17.6289 184.783 17.6289C186.342 17.6289 187.719 17.9277 188.914 18.5254C190.121 19.123 191.064 19.9844 191.744 21.1094C192.424 22.2227 192.764 23.5645 192.764 25.1348H187.596C187.596 24.5254 187.484 23.9805 187.262 23.5C187.051 23.0078 186.723 22.6211 186.277 22.3398C185.844 22.0469 185.305 21.9004 184.66 21.9004C183.992 21.9004 183.441 22.0469 183.008 22.3398C182.586 22.6211 182.264 23.0137 182.041 23.5176C181.818 24.0215 181.666 24.5957 181.584 25.2402C181.502 25.873 181.461 26.5469 181.461 27.2617V27.7188C181.461 28.4453 181.502 29.1367 181.584 29.793C181.666 30.4375 181.818 31.0059 182.041 31.498C182.275 31.9902 182.604 32.377 183.025 32.6582C183.447 32.9395 184.004 33.0801 184.695 33.0801ZM205.156 17.9805V21.8301H193.871V17.9805H205.156ZM196.455 13.2695H201.957V31.041C201.957 31.5684 202.021 31.9727 202.15 32.2539C202.279 32.5352 202.49 32.7344 202.783 32.8516C203.076 32.957 203.451 33.0098 203.908 33.0098C204.236 33.0098 204.518 32.998 204.752 32.9746C204.986 32.9512 205.203 32.9219 205.402 32.8867V36.8594C204.934 37.0117 204.436 37.1289 203.908 37.2109C203.381 37.3047 202.807 37.3516 202.186 37.3516C201.002 37.3516 199.977 37.1582 199.109 36.7715C198.254 36.3848 197.598 35.7754 197.141 34.9434C196.684 34.0996 196.455 33.0039 196.455 31.6562V13.2695ZM222.77 11.4062V37H217.039V11.4062H222.77ZM232.842 22.1992V26.6289H221.17V22.1992H232.842ZM233.967 11.4062V15.8535H221.17V11.4062H233.967ZM235.303 27.6836V27.3145C235.303 25.9199 235.502 24.6367 235.9 23.4648C236.299 22.2812 236.885 21.2559 237.658 20.3887C238.432 19.5215 239.381 18.8477 240.506 18.3672C241.631 17.875 242.92 17.6289 244.373 17.6289C245.85 17.6289 247.15 17.875 248.275 18.3672C249.412 18.8477 250.367 19.5215 251.141 20.3887C251.914 21.2559 252.5 22.2812 252.898 23.4648C253.297 24.6367 253.496 25.9199 253.496 27.3145V27.6836C253.496 29.0664 253.297 30.3496 252.898 31.5332C252.5 32.7051 251.914 33.7305 251.141 34.6094C250.367 35.4766 249.418 36.1504 248.293 36.6309C247.168 37.1113 245.873 37.3516 244.408 37.3516C242.955 37.3516 241.66 37.1113 240.523 36.6309C239.387 36.1504 238.432 35.4766 237.658 34.6094C236.885 33.7305 236.299 32.7051 235.9 31.5332C235.502 30.3496 235.303 29.0664 235.303 27.6836ZM240.805 27.3145V27.6836C240.805 28.4336 240.863 29.1367 240.98 29.793C241.109 30.4492 241.314 31.0234 241.596 31.5156C241.877 32.0078 242.246 32.3945 242.703 32.6758C243.172 32.9453 243.74 33.0801 244.408 33.0801C245.076 33.0801 245.639 32.9453 246.096 32.6758C246.553 32.3945 246.922 32.0078 247.203 31.5156C247.484 31.0234 247.684 30.4492 247.801 29.793C247.93 29.1367 247.994 28.4336 247.994 27.6836V27.3145C247.994 26.5762 247.93 25.8848 247.801 25.2402C247.684 24.584 247.484 24.0039 247.203 23.5C246.922 22.9961 246.547 22.6035 246.078 22.3223C245.621 22.041 245.053 21.9004 244.373 21.9004C243.717 21.9004 243.16 22.041 242.703 22.3223C242.246 22.6035 241.877 22.9961 241.596 23.5C241.314 24.0039 241.109 24.584 240.98 25.2402C240.863 25.8848 240.805 26.5762 240.805 27.3145ZM255.588 27.6836V27.3145C255.588 25.9199 255.787 24.6367 256.186 23.4648C256.584 22.2812 257.17 21.2559 257.943 20.3887C258.717 19.5215 259.666 18.8477 260.791 18.3672C261.916 17.875 263.205 17.6289 264.658 17.6289C266.135 17.6289 267.436 17.875 268.561 18.3672C269.697 18.8477 270.652 19.5215 271.426 20.3887C272.199 21.2559 272.785 22.2812 273.184 23.4648C273.582 24.6367 273.781 25.9199 273.781 27.3145V27.6836C273.781 29.0664 273.582 30.3496 273.184 31.5332C272.785 32.7051 272.199 33.7305 271.426 34.6094C270.652 35.4766 269.703 36.1504 268.578 36.6309C267.453 37.1113 266.158 37.3516 264.693 37.3516C263.24 37.3516 261.945 37.1113 260.809 36.6309C259.672 36.1504 258.717 35.4766 257.943 34.6094C257.17 33.7305 256.584 32.7051 256.186 31.5332C255.787 30.3496 255.588 29.0664 255.588 27.6836ZM261.09 27.3145V27.6836C261.09 28.4336 261.148 29.1367 261.266 29.793C261.395 30.4492 261.6 31.0234 261.881 31.5156C262.162 32.0078 262.531 32.3945 262.988 32.6758C263.457 32.9453 264.025 33.0801 264.693 33.0801C265.361 33.0801 265.924 32.9453 266.381 32.6758C266.838 32.3945 267.207 32.0078 267.488 31.5156C267.77 31.0234 267.969 30.4492 268.086 29.793C268.215 29.1367 268.279 28.4336 268.279 27.6836V27.3145C268.279 26.5762 268.215 25.8848 268.086 25.2402C267.969 24.584 267.77 24.0039 267.488 23.5C267.207 22.9961 266.832 22.6035 266.363 22.3223C265.906 22.041 265.338 21.9004 264.658 21.9004C264.002 21.9004 263.445 22.041 262.988 22.3223C262.531 22.6035 262.162 22.9961 261.881 23.5C261.6 24.0039 261.395 24.584 261.266 25.2402C261.148 25.8848 261.09 26.5762 261.09 27.3145ZM287.738 32.7461V10H293.258V37H288.301L287.738 32.7461ZM275.891 27.7188V27.3496C275.891 25.9082 276.049 24.5957 276.365 23.4121C276.693 22.2168 277.168 21.1914 277.789 20.3359C278.422 19.4688 279.201 18.8008 280.127 18.332C281.053 17.8633 282.113 17.6289 283.309 17.6289C284.41 17.6289 285.371 17.875 286.191 18.3672C287.012 18.8477 287.709 19.5273 288.283 20.4062C288.869 21.2734 289.344 22.2988 289.707 23.4824C290.07 24.6543 290.346 25.9258 290.533 27.2969V27.9297C290.357 29.2422 290.082 30.4668 289.707 31.6035C289.344 32.7402 288.869 33.7422 288.283 34.6094C287.709 35.4648 287.006 36.1387 286.174 36.6309C285.354 37.1113 284.387 37.3516 283.273 37.3516C282.078 37.3516 281.018 37.1113 280.092 36.6309C279.178 36.1504 278.41 35.4766 277.789 34.6094C277.168 33.7422 276.693 32.7227 276.365 31.5508C276.049 30.3789 275.891 29.1016 275.891 27.7188ZM281.375 27.3496V27.7188C281.375 28.4688 281.428 29.166 281.533 29.8105C281.65 30.4551 281.838 31.0234 282.096 31.5156C282.354 32.0078 282.693 32.3945 283.115 32.6758C283.537 32.9453 284.053 33.0801 284.662 33.0801C285.482 33.0801 286.156 32.8926 286.684 32.5176C287.211 32.1309 287.609 31.5977 287.879 30.918C288.148 30.2383 288.289 29.4473 288.301 28.5449V26.6992C288.301 25.9492 288.225 25.2754 288.072 24.6777C287.92 24.0801 287.691 23.5762 287.387 23.166C287.094 22.7559 286.725 22.4453 286.279 22.2344C285.834 22.0117 285.307 21.9004 284.697 21.9004C284.1 21.9004 283.59 22.041 283.168 22.3223C282.746 22.5918 282.4 22.9727 282.131 23.4648C281.873 23.957 281.68 24.5371 281.551 25.2051C281.434 25.8613 281.375 26.5762 281.375 27.3496Z" fill="white"/>
<path d="M23.4161 0.0104779C23.4089 0.0176298 23.1157 0.0462377 22.7794 0.0748455C22.4432 0.103453 22.0999 0.132061 22.0283 0.146365C21.9568 0.160669 21.735 0.196429 21.5347 0.217885C19.1383 0.532571 16.42 1.34789 14.1666 2.4493C12.879 3.07152 10.9619 4.21583 10.1964 4.81659C10.1392 4.85951 9.8316 5.10267 9.51685 5.34584C7.00597 7.29832 4.69539 10.0089 3.10016 12.884C2.75679 13.4991 2.04144 14.9509 2.04144 15.0367C2.04144 15.051 1.96275 15.2298 1.86976 15.4373C1.44055 16.3885 0.760966 18.5269 0.574975 19.5067C0.553515 19.5997 0.496287 19.9215 0.431905 20.2148C0.274528 21.0372 0.2173 21.3591 0.138612 22.0385C-0.0473793 23.6835 -0.0473793 26.8089 0.145765 27.946C0.160072 28.039 0.188686 28.275 0.210147 28.4753C0.274528 29.0331 0.367524 29.5624 0.574975 30.5136C0.725199 31.2002 1.22594 32.9381 1.39047 33.3386C1.42624 33.4173 1.56931 33.8035 1.71954 34.1968C2.07006 35.1266 2.92132 36.8645 3.46499 37.7728C6.26201 42.4073 10.2823 45.9261 15.1967 48.0287C17.1282 48.8584 19.4745 49.5163 21.4918 49.7953C21.6706 49.8167 21.8996 49.8525 21.9997 49.8668C23.1657 50.0456 26.8784 50.0456 28.023 49.8596C28.1159 49.8453 28.352 49.8096 28.5452 49.7881C29.0602 49.7166 29.1604 49.7023 29.4036 49.6522C29.5252 49.6308 29.7183 49.595 29.8328 49.5736C32.2864 49.1087 35.1264 48.0573 37.2653 46.8272C37.6158 46.6269 37.9306 46.4624 37.9592 46.4624C37.9949 46.4624 38.0235 46.4267 38.0235 46.3909C38.0235 46.348 38.0593 46.3194 38.0951 46.3194C38.2024 46.3194 39.6689 45.311 40.4557 44.6959C41.5431 43.852 42.7735 42.6934 43.6748 41.6778C43.9323 41.3846 44.1756 41.1128 44.2185 41.0699C44.2614 41.027 44.5618 40.6336 44.8909 40.2045C45.9639 38.7955 46.8724 37.3079 47.6307 35.7131C47.8167 35.334 47.9669 35.005 47.9669 34.9836C47.9669 34.9693 48.0456 34.7833 48.1386 34.5759C48.5463 33.6676 49.2188 31.5649 49.4405 30.4778C49.5621 29.8985 49.8268 28.3251 49.8626 27.9746C49.8912 27.7386 49.927 27.4668 49.9413 27.3667C50.0057 27.0377 50.02 23.6191 49.9699 23.0398C49.8626 21.9455 49.8197 21.5379 49.7911 21.4306C49.7767 21.3734 49.741 21.1803 49.7195 21.0015C49.5979 20.0789 49.1472 18.2551 48.7466 17.0536C46.2572 9.64417 40.3914 3.77241 32.9803 1.27637C31.7785 0.868713 29.9759 0.425291 29.0101 0.296556C28.8742 0.2751 28.6811 0.246493 28.5809 0.225037C28.4879 0.210733 28.2089 0.174973 27.9657 0.146365C27.7297 0.124909 27.4364 0.0891494 27.3219 0.0748455C27.093 0.0390857 23.459 -0.0252819 23.4161 0.0104779ZM17.9008 14.3001C18.6447 14.6934 18.9952 15.566 18.7377 16.4028C18.516 17.1037 17.958 17.5471 17.1997 17.6043C16.7133 17.6401 16.4701 17.7473 16.327 17.9905C16.1553 18.2837 16.1768 18.5555 16.3842 18.8273C16.5702 19.0633 16.6703 19.1062 17.3285 19.1706C18.2298 19.2707 18.8665 20.0574 18.8092 21.0158C18.7663 21.8812 18.1797 22.5248 17.3499 22.625C16.9064 22.675 16.656 22.5678 16.5988 22.2817C16.5344 21.9884 16.7204 21.7453 17.0924 21.6523C17.6432 21.5164 17.9222 21.1159 17.7791 20.6725C17.6718 20.3578 17.3929 20.1432 17.0709 20.1361C16.4987 20.1289 15.8906 19.7284 15.6045 19.1706C15.4686 18.906 15.4399 18.7415 15.4543 18.3553C15.4829 17.354 16.2125 16.6531 17.2712 16.603C18.0438 16.5673 18.3443 15.7019 17.7362 15.2585C17.6432 15.1869 17.493 15.1297 17.4 15.1226C16.9851 15.1154 16.8349 15.051 16.7419 14.8293C16.6632 14.6362 16.6632 14.5719 16.749 14.4002C16.8063 14.2929 16.9279 14.1714 17.0066 14.1427C17.1997 14.0712 17.6003 14.1427 17.9008 14.3001ZM22.1142 14.1284C22.1499 14.1642 22.293 14.2143 22.4289 14.2286C22.8224 14.2929 23.0227 14.3573 23.2516 14.5218C23.924 14.9795 24.1887 15.9307 23.8596 16.696C23.5806 17.3397 23.0441 17.6901 22.2572 17.7473C21.5848 17.7902 21.3416 17.969 21.2557 18.4768C21.22 18.6485 21.2629 18.7415 21.4489 18.9489C21.6349 19.1634 21.7422 19.2206 22.0355 19.2564C22.6435 19.3208 22.7079 19.3422 23.0155 19.5139C24.1314 20.1361 24.1529 21.8454 23.0656 22.5248C22.6078 22.8038 22.0283 22.861 21.8066 22.6536C21.4632 22.3246 21.6778 21.8454 22.2072 21.7596C22.5505 21.7095 22.7866 21.452 22.8367 21.0801C22.8724 20.8227 22.851 20.7655 22.6221 20.5366C22.4575 20.3721 22.3002 20.2863 22.1714 20.2791C21.5562 20.2648 21.127 20.0646 20.7622 19.6426C20.1899 18.9703 20.2471 17.9333 20.8838 17.3182C21.2987 16.9177 21.6349 16.7747 22.2358 16.7461C22.9154 16.7103 23.2373 16.0094 22.8009 15.5159C22.6435 15.3371 22.4075 15.2084 22.2215 15.2084C21.9568 15.2084 21.7207 15.051 21.642 14.815C21.5562 14.5504 21.6349 14.2572 21.8352 14.1427C21.9926 14.0498 22.0283 14.0498 22.1142 14.1284ZM27.5222 14.2286C27.6653 14.2429 27.93 14.3359 28.1088 14.4217C29.3463 15.0153 29.3535 16.9106 28.1303 17.5471C27.887 17.6687 27.7225 17.7116 27.2861 17.7402C26.8355 17.7759 26.6423 17.8475 26.4993 18.0263C26.2131 18.3624 26.2703 18.8773 26.6209 19.0991C26.7139 19.1634 27.0215 19.2492 27.3004 19.285C27.8942 19.3708 28.259 19.5496 28.538 19.9001C28.8098 20.2434 28.9314 20.6296 28.91 21.1159C28.8742 22.0171 28.2519 22.6893 27.3648 22.7752C26.9857 22.8109 26.7425 22.6536 26.6924 22.3389C26.6495 22.0957 26.907 21.7882 27.1574 21.7882C27.3934 21.7882 27.7654 21.5236 27.8656 21.2876C27.9371 21.1088 27.9371 21.0229 27.8584 20.8084C27.7368 20.4865 27.4578 20.3149 26.9785 20.2505C26.2918 20.1647 25.8268 19.8286 25.555 19.2135C25.0757 18.1407 25.8984 16.8462 27.1288 16.7389C27.5794 16.7031 27.8083 16.5673 27.9657 16.2597C28.073 16.0309 28.0802 15.9522 28.0086 15.7877C27.8799 15.473 27.6367 15.2871 27.2718 15.2155C26.8498 15.1369 26.7353 15.0439 26.6781 14.7292C26.5994 14.3215 26.8569 13.9997 27.1502 14.1427C27.2075 14.1714 27.3791 14.2071 27.5222 14.2286ZM38.0593 15.2441C38.2167 15.3371 38.4313 15.5088 38.5386 15.6232C38.8748 15.9808 39.3469 16.9606 39.4972 17.5828C39.5115 17.6544 39.5472 17.7831 39.5687 17.8689C39.6617 18.2265 39.6545 19.192 39.5544 19.5711C39.4256 20.0431 39.0751 20.6439 38.7532 20.9371C38.5028 21.166 37.9162 21.5021 37.766 21.5021C37.6444 21.5021 37.6373 21.4449 37.8447 22.2245C38.0736 23.0898 38.2739 24.1841 38.3455 24.9351C38.3669 25.1496 38.3955 25.4858 38.417 25.686C38.4742 26.2224 38.6101 30.1631 38.6244 31.6293C38.6316 32.2301 38.6173 32.3016 38.417 32.6306C37.7446 33.7034 36.2996 33.6175 35.7917 32.4732C35.6343 32.1085 35.62 31.8295 35.6844 30.4063C35.713 29.8127 35.7559 28.8972 35.7702 28.368C35.8489 26.1938 35.9776 24.4773 36.135 23.6906C36.1493 23.6048 36.2137 23.2973 36.2709 23.004C36.3282 22.7108 36.4355 22.2531 36.507 21.9813C36.6215 21.5879 36.6286 21.5021 36.5428 21.5021C36.3496 21.5021 35.763 21.1588 35.4697 20.8656C35.1264 20.5294 34.7616 19.8357 34.6757 19.3565C34.4969 18.391 34.8045 17.0751 35.4554 16.0166C36.0635 15.0296 37.1508 14.7078 38.0593 15.2441ZM34.3323 24.084C34.4325 24.1626 34.5183 24.2985 34.5183 24.3844C34.5183 24.649 34.0319 26.0007 33.6599 26.7731C32.4939 29.1976 30.4838 31.2645 28.1231 32.4804L27.5437 32.7808V34.1611C27.5437 35.4842 27.5437 35.5557 27.3934 35.7345L27.2361 35.9133L22.5934 35.9205C19.9824 35.9205 17.8721 35.899 17.7648 35.8632C17.6647 35.8275 17.5502 35.7131 17.5073 35.6058C17.4715 35.4985 17.4429 34.8191 17.4501 34.0967L17.4572 32.7808L16.9565 32.5304C15.6474 31.8939 14.6388 31.1787 13.6301 30.1631C12.6 29.1333 11.9133 28.1749 11.2695 26.8804C10.8474 26.015 10.3395 24.6347 10.3395 24.32C10.3395 24.2842 10.4039 24.1769 10.4826 24.0911L10.6328 23.9338H22.386H34.1392L34.3323 24.084Z" fill="white"/>
</svg>
