<?xml version="1.0" standalone="no"?>
<!DOCTYPE svg PUBLIC "-//W3C//DTD SVG 20010904//EN"
 "http://www.w3.org/TR/2001/REC-SVG-20010904/DTD/svg10.dtd">
<svg version="1.0" xmlns="http://www.w3.org/2000/svg"
 width="700.000000pt" height="700.000000pt" viewBox="0 0 700.000000 700.000000"
 preserveAspectRatio="xMidYMid meet">
<metadata>
Created by potrace 1.14, written by Peter Selinger 2001-2017
</metadata>
<g transform="translate(0.000000,700.000000) scale(0.100000,-0.100000)"
fill="#000000" stroke="none">
<path d="M3278 6995 c-1 -1 -42 -5 -89 -9 -47 -4 -95 -8 -105 -10 -10 -2 -41
-7 -69 -10 -335 -44 -715 -158 -1030 -312 -180 -87 -448 -247 -555 -331 -8 -6
-51 -40 -95 -74 -351 -273 -674 -652 -897 -1054 -48 -86 -148 -289 -148 -301
0 -2 -11 -27 -24 -56 -60 -133 -155 -432 -181 -569 -3 -13 -11 -58 -20 -99
-22 -115 -30 -160 -41 -255 -26 -230 -26 -667 1 -826 2 -13 6 -46 9 -74 9 -78
22 -152 51 -285 21 -96 91 -339 114 -395 5 -11 25 -65 46 -120 49 -130 168
-373 244 -500 391 -648 953 -1140 1640 -1434 270 -116 598 -208 880 -247 25
-3 57 -8 71 -10 163 -25 682 -25 842 1 13 2 46 7 73 10 72 10 86 12 120 19 17
3 44 8 60 11 343 65 740 212 1039 384 49 28 93 51 97 51 5 0 9 5 9 10 0 6 5
10 10 10 15 0 220 141 330 227 152 118 324 280 450 422 36 41 70 79 76 85 6 6
48 61 94 121 150 197 277 405 383 628 26 53 47 99 47 102 0 2 11 28 24 57 57
127 151 421 182 573 17 81 54 301 59 350 4 33 9 71 11 85 9 46 11 524 4 605
-15 153 -21 210 -25 225 -2 8 -7 35 -10 60 -17 129 -80 384 -136 552 -348
1036 -1168 1857 -2204 2206 -168 57 -420 119 -555 137 -19 3 -46 7 -60 10 -13
2 -52 7 -86 11 -33 3 -74 8 -90 10 -32 5 -540 14 -546 9z m-771 -1998 c104
-55 153 -177 117 -294 -31 -98 -109 -160 -215 -168 -68 -5 -102 -20 -122 -54
-24 -41 -21 -79 8 -117 26 -33 40 -39 132 -48 126 -14 215 -124 207 -258 -6
-121 -88 -211 -204 -225 -62 -7 -97 8 -105 48 -9 41 17 75 69 88 77 19 116 75
96 137 -15 44 -54 74 -99 75 -80 1 -165 57 -205 135 -19 37 -23 60 -21 114 4
140 106 238 254 245 108 5 150 126 65 188 -13 10 -34 18 -47 19 -58 1 -79 10
-92 41 -11 27 -11 36 1 60 8 15 25 32 36 36 27 10 83 0 125 -22z m589 24 c5
-5 25 -12 44 -14 55 -9 83 -18 115 -41 94 -64 131 -197 85 -304 -39 -90 -114
-139 -224 -147 -94 -6 -128 -31 -140 -102 -5 -24 1 -37 27 -66 26 -30 41 -38
82 -43 85 -9 94 -12 137 -36 156 -87 159 -326 7 -421 -64 -39 -145 -47 -176
-18 -48 46 -18 113 56 125 48 7 81 43 88 95 5 36 2 44 -30 76 -23 23 -45 35
-63 36 -86 2 -146 30 -197 89 -80 94 -72 239 17 325 58 56 105 76 189 80 95 5
140 103 79 172 -22 25 -55 43 -81 43 -37 0 -70 22 -81 55 -12 37 -1 78 27 94
22 13 27 13 39 2z m756 -14 c20 -2 57 -15 82 -27 173 -83 174 -348 3 -437 -34
-17 -57 -23 -118 -27 -63 -5 -90 -15 -110 -40 -40 -47 -32 -119 17 -150 13 -9
56 -21 95 -26 83 -12 134 -37 173 -86 38 -48 55 -102 52 -170 -5 -126 -92
-220 -216 -232 -53 -5 -87 17 -94 61 -6 34 30 77 65 77 33 0 85 37 99 70 10
25 10 37 -1 67 -17 45 -56 69 -123 78 -96 12 -161 59 -199 145 -67 150 48 331
220 346 63 5 95 24 117 67 15 32 16 43 6 66 -18 44 -52 70 -103 80 -59 11 -75
24 -83 68 -11 57 25 102 66 82 8 -4 32 -9 52 -12z m1473 -142 c22 -13 52 -37
67 -53 47 -50 113 -187 134 -274 2 -10 7 -28 10 -40 13 -50 12 -185 -2 -238
-18 -66 -67 -150 -112 -191 -35 -32 -117 -79 -138 -79 -17 0 -18 8 11 -101 32
-121 60 -274 70 -379 3 -30 7 -77 10 -105 8 -75 27 -626 29 -831 1 -84 -1 -94
-29 -140 -94 -150 -296 -138 -367 22 -22 51 -24 90 -15 289 4 83 10 211 12
285 11 304 29 544 51 654 2 12 11 55 19 96 8 41 23 105 33 143 16 55 17 67 5
67 -27 0 -109 48 -150 89 -48 47 -99 144 -111 211 -25 135 18 319 109 467 85
138 237 183 364 108z m-521 -1236 c14 -11 26 -30 26 -42 0 -37 -68 -226 -120
-334 -163 -339 -444 -628 -774 -798 l-81 -42 0 -193 c0 -185 0 -195 -21 -220
l-22 -25 -649 -1 c-365 0 -660 3 -675 8 -14 5 -30 21 -36 36 -5 15 -9 110 -8
211 l1 184 -70 35 c-183 89 -324 189 -465 331 -144 144 -240 278 -330 459 -59
121 -130 314 -130 358 0 5 9 20 20 32 l21 22 1643 0 1643 0 27 -21z"/>
</g>
</svg>
